<?xml version="1.0" encoding="UTF-8" standalone="no"?>
<svg
   xmlns:dc="http://purl.org/dc/elements/1.1/"
   xmlns:cc="http://creativecommons.org/ns#"
   xmlns:rdf="http://www.w3.org/1999/02/22-rdf-syntax-ns#"
   xmlns:svg="http://www.w3.org/2000/svg"
   xmlns="http://www.w3.org/2000/svg"
   xmlns:sodipodi="http://sodipodi.sourceforge.net/DTD/sodipodi-0.dtd"
   xmlns:inkscape="http://www.inkscape.org/namespaces/inkscape"
   version="1.1"
   id="Capa_1"
   x="0px"
   y="0px"
   viewBox="0 0 24.303 24.303"
   style="enable-background:new 0 0 24.303 24.303;"
   xml:space="preserve"
   sodipodi:docname="on-off-button.svg"
   inkscape:version="1.0.1 (3bc2e813f5, 2020-09-07)"><metadata
   id="metadata949"><rdf:RDF><cc:Work
       rdf:about=""><dc:format>image/svg+xml</dc:format><dc:type
         rdf:resource="http://purl.org/dc/dcmitype/StillImage" /><dc:title></dc:title></cc:Work></rdf:RDF></metadata><defs
   id="defs947" /><sodipodi:namedview
   pagecolor="#ffffff"
   bordercolor="#666666"
   borderopacity="1"
   objecttolerance="10"
   gridtolerance="10"
   guidetolerance="10"
   inkscape:pageopacity="0"
   inkscape:pageshadow="2"
   inkscape:window-width="2522"
   inkscape:window-height="1334"
   id="namedview945"
   showgrid="false"
   inkscape:zoom="33.547057"
   inkscape:cx="11.040681"
   inkscape:cy="10.019385"
   inkscape:window-x="0"
   inkscape:window-y="0"
   inkscape:window-maximized="1"
   inkscape:current-layer="Capa_1" />
<g
   id="g912"
   style="fill:#bf616a;fill-opacity:1">
	<path
   style="fill:#bf616a;fill-opacity:1"
   d="M10.269,11.298V1.883C10.269,0.844,11.113,0,12.152,0s1.883,0.844,1.883,1.883v9.415   c0,1.039-0.844,1.883-1.883,1.883S10.269,12.337,10.269,11.298z M19.616,2.761c-0.61-0.483-1.5-0.377-1.983,0.234   c-0.483,0.612-0.378,1.5,0.234,1.984c2.24,1.767,3.524,4.413,3.524,7.261c0,5.094-4.145,9.239-9.238,9.239   c-5.094,0-9.239-4.145-9.239-9.239c0-2.847,1.283-5.492,3.521-7.258c0.612-0.483,0.717-1.371,0.234-1.984   c-0.483-0.612-1.37-0.716-1.984-0.234C1.764,5.069,0.089,8.523,0.089,12.24c0,6.652,5.412,12.063,12.063,12.063   s12.063-5.412,12.063-12.063C24.215,8.521,22.538,5.067,19.616,2.761z"
   id="path910" />
</g>
<g
   id="g914">
</g>
<g
   id="g916">
</g>
<g
   id="g918">
</g>
<g
   id="g920">
</g>
<g
   id="g922">
</g>
<g
   id="g924">
</g>
<g
   id="g926">
</g>
<g
   id="g928">
</g>
<g
   id="g930">
</g>
<g
   id="g932">
</g>
<g
   id="g934">
</g>
<g
   id="g936">
</g>
<g
   id="g938">
</g>
<g
   id="g940">
</g>
<g
   id="g942">
</g>
</svg>
