<?xml version="1.0" encoding="UTF-8" standalone="no"?>
<svg
   xmlns:dc="http://purl.org/dc/elements/1.1/"
   xmlns:cc="http://creativecommons.org/ns#"
   xmlns:rdf="http://www.w3.org/1999/02/22-rdf-syntax-ns#"
   xmlns:svg="http://www.w3.org/2000/svg"
   xmlns="http://www.w3.org/2000/svg"
   xmlns:sodipodi="http://sodipodi.sourceforge.net/DTD/sodipodi-0.dtd"
   xmlns:inkscape="http://www.inkscape.org/namespaces/inkscape"
   version="1.1"
   id="Layer_1"
   x="0px"
   y="0px"
   viewBox="1589.1 -0.1 410.9 383.1"
   enable-background="new 1589.1 -0.1 410.9 383.1"
   xml:space="preserve"
   sodipodi:docname="wlroots.svg"
   inkscape:version="1.0.1 (3bc2e813f5, 2020-09-07)"><metadata
   id="metadata51"><rdf:RDF><cc:Work
       rdf:about=""><dc:format>image/svg+xml</dc:format><dc:type
         rdf:resource="http://purl.org/dc/dcmitype/StillImage" /><dc:title></dc:title></cc:Work></rdf:RDF></metadata><defs
   id="defs49" /><sodipodi:namedview
   pagecolor="#ffffff"
   bordercolor="#666666"
   borderopacity="1"
   objecttolerance="10"
   gridtolerance="10"
   guidetolerance="10"
   inkscape:pageopacity="0"
   inkscape:pageshadow="2"
   inkscape:window-width="996"
   inkscape:window-height="1334"
   id="namedview47"
   showgrid="false"
   inkscape:zoom="0.90776059"
   inkscape:cx="107.20686"
   inkscape:cy="199.61884"
   inkscape:window-x="0"
   inkscape:window-y="0"
   inkscape:window-maximized="1"
   inkscape:current-layer="Layer_1"
   inkscape:document-rotation="0" />


<g
   id="g18"
   style="fill:#d8dee9;fill-opacity:1">
	<g
   id="g16"
   style="fill:#d8dee9;fill-opacity:1">
		<path
   fill="#C6ADAC"
   d="M1656.3,277.2c-2.5-57,55.2-87.7,97.8-111.1c37.2-20.3,83.7-46.8,74.1-96.4c-2-10.3-17.8-6-15.8,4.4    c4.4,22.7-8.5,39.9-25.8,53c-20.3,15.4-43.7,26.3-65.9,38.8c-40.8,23.2-83.1,59.9-81,111.3    C1640.5,287.7,1656.8,287.7,1656.3,277.2L1656.3,277.2z"
   id="path14"
   style="fill:#d8dee9;fill-opacity:1" />
	</g>
</g>
<g
   id="g24"
   style="fill:#d8dee9;fill-opacity:1">
	<g
   id="g22"
   style="fill:#d8dee9;fill-opacity:1">
		<path
   fill="#C6ADAC"
   d="M1728,183.7c56.6,11.8,116.4-5.1,158.3-45c7.6-7.3-4-18.9-11.6-11.6c-37.4,35.8-91.7,51.4-142.3,40.8    C1722,165.9,1717.6,181.5,1728,183.7L1728,183.7z"
   id="path20"
   style="fill:#d8dee9;fill-opacity:1" />
	</g>
</g>
<g
   id="g44"
   style="fill:#81a1c1;fill-opacity:1">
	<path
   fill="#68751C"
   d="M1727.8,64.8c14.9,3.6,40.1-13.6,51.4-19.1c14.5-7.1,29.6-12.5,44.3-19.1c5.6-2.5,24-8.3,24.1-16.5   c0.4-10.2-19.1-10.7-25.4-10c-12.9,1.3-25.4,5.3-37.8,8.9c-12.7,3.8-25,8.9-36.8,15.2c-8.9,4.7-21.1,13.1-26.3,21.8   c-3.3,5.3-3.1,13.1,2,16.7C1724.5,63.7,1726.2,64.4,1727.8,64.8z"
   id="path26"
   style="fill:#81a1c1;fill-opacity:1" />
	<path
   fill="#68751C"
   d="M1819.1,37.2c2.5-1.5,5.1-2.7,7.6-4c21.1-10,45.4-18.2,69.3-20c20.9-1.6,43.9-5.4,64.6,0.2   c10.7,2.9,22.5,13.3,16.9,23.2c-4.2,7.4-21.2,17.4-28.7,22.9c-27.4,19.4-65.7,28-100.7,29.8c-25.4,1.3-67.3-13.3-44.1-40.7   C1808,44.1,1813.3,40.5,1819.1,37.2z"
   id="path28"
   style="fill:#81a1c1;fill-opacity:1" />
	<path
   fill="#68751C"
   d="M1958.9,60.1c5.8,0.2,12.5,1.6,15.2,6.9c2.2,4.4,0.5,9.6-2.5,13.3c-3.3,3.6-7.6,5.6-12.2,7.4   c-22.5,9.4-46.6,15.1-71,16.7c-6.7,0.4-13.8,0.5-20.3-1.6s-12.3-7.1-14.2-13.6c-4-15.1,29-20,37.9-21.6s17.8-2.7,26.7-3.1   C1932,63.5,1945.1,59.5,1958.9,60.1z"
   id="path30"
   style="fill:#81a1c1;fill-opacity:1" />
	<path
   fill="#68751C"
   d="M1955.6,158.8c-8.9-22-62.4,2.2-74.6,10c-4.5,2.9-9.3,7.3-8.3,12.5c0.9,5.6,7.6,8.2,13.4,8.9   C1900.2,192,1966.1,184.8,1955.6,158.8z"
   id="path32"
   style="fill:#81a1c1;fill-opacity:1" />
	<path
   fill="#68751C"
   d="M1787.5,87.7c-2.2,14.5-21.8,30.5-34.9,35c-12.7,4.5-33.9-4.9-26.1-20.3c6.9-13.4,41-37.4,55.9-27.6   C1786.6,77.5,1788.2,83,1787.5,87.7z"
   id="path34"
   style="fill:#81a1c1;fill-opacity:1" />
	<path
   fill="#68751C"
   d="M1825.1,159.9c20.9,2.5,42.3-0.2,61.9-7.6c4.4-1.6,8.9-3.8,10.7-8.2c1.3-3.3,0.4-7.3-2.2-9.6   c-2.5-2.4-6.5-3.1-9.6-1.6c-5.8-6.4-16-5.8-24.5-4.2c-13.4,2.7-26.7,7.6-38.8,14c-4.4,2.4-9.3,6.4-8,11.1   C1815.8,157.9,1820.9,159.4,1825.1,159.9z"
   id="path36"
   style="fill:#81a1c1;fill-opacity:1" />
	<path
   fill="#68751C"
   d="M1849.4,143c27.6,6.2,57.9-1.8,81.5-17.1c3.1-2,6.5-5.1,6-8.9c-0.7-4.5-6.5-6-11.3-5.8   c-26.9,0.4-54.1,7.1-77.5,20.7c-2.7,1.5-5.6,4-4.9,6.9C1844,141.4,1846.9,142.5,1849.4,143z"
   id="path38"
   style="fill:#81a1c1;fill-opacity:1" />
	<g
   id="g42"
   style="fill:#81a1c1;fill-opacity:1">
		<path
   fill="#68751C"
   d="M1711.1,106.4c2.5-3.1,4.7-6.9,3.6-10.5c-5.1-20.1-32.5,6-39,12c-8.3,7.6-8,14.3,5.6,14.3    C1692.6,122,1704.4,114.5,1711.1,106.4z"
   id="path40"
   style="fill:#81a1c1;fill-opacity:1" />
	</g>
</g>
</svg>
